<svg width="2008" height="2576" viewBox="0 0 2008 2576" fill="none" xmlns="http://www.w3.org/2000/svg" filter="opacity(1.5%)">
<g style="mix-blend-mode:luminosity">
<path d="M1390.24 38.8039C1257.62 87.654 1120.45 125.484 984.546 163.919C839.694 204.901 687.537 204.166 539.685 219.075C450.585 228.003 364.669 246.003 293.554 304.536C243.81 345.521 210.185 394.817 190.598 456.118C163.309 541.52 162.239 634.585 130.469 718.277C123.116 737.648 113.243 757.23 96.3397 770.021C82.2817 780.633 64.6672 785.63 49.0904 792.627C35.2236 798.86 29.6549 809.471 28.1187 822.955C23.4477 864.085 47.913 917.088 55.2217 959.852C56.769 968.886 58.4002 980.448 63.11 988.412C66.4798 994.094 71.3135 993.955 75.5206 993.675C108.186 991.496 142.438 993.167 174.656 985.166C211.586 975.995 237.224 952.738 253.44 920.826C281.195 866.107 283.63 795.342 294.86 733.064C305.987 671.598 318.097 609.726 339.552 550.866C357.682 501.042 383.225 454.394 419.323 415.263C464.583 366.247 526.871 339.982 589.7 323.979C744.238 284.669 909.599 288.927 1066.4 251.451C1144.42 232.81 1221.83 209.069 1298.53 185.658C1364.21 165.614 1430.47 144.202 1492.22 115.121C1509.61 106.939 1533 96.9669 1542.42 78.5877C1546.99 69.6668 1546.22 60.6375 1544.64 51.9958C1542.29 39.1655 1536.62 26.2579 1525.86 18.5054C1490.24 -7.17155 1425.53 24.0777 1390.28 38.8042" fill="#137D9F"/>
<path d="M1495.69 137.292C1425.18 167.307 1352.1 190.754 1278.87 212.818C1230.74 227.312 1182.4 241.226 1134.11 255.219C1060.46 276.574 985.05 289.257 909.214 299.495C826.912 310.61 743.485 319.481 662.381 335.605C570.342 353.905 482.465 383.646 420.346 458.538C370.991 518.1 343.609 591.293 324.36 665.356C312.405 711.394 303.467 758.097 294.969 804.831C287.038 848.42 282.783 894.031 265.199 935.133C241.545 990.415 195.593 1016.41 145.49 1043.1C126.923 1053 114.066 1069.41 104.495 1087.33C81.5469 1130.28 71.1169 1180.72 62.8246 1229.34C61.74 1235.69 60.6736 1242.27 59.8609 1249.09C58.2562 1262.65 57.7076 1276.32 58.22 1289.97C58.2146 1290.96 58.2778 1291.94 58.3409 1292.92C59.003 1302.5 59.5276 1313.86 64.9217 1322.32C68.1095 1327.33 73.3654 1327.2 78.5568 1326.32C176.383 1309.28 278.795 1285.63 336.787 1200.13C371.27 1149.31 376.235 1085.46 386.023 1025.34C397.195 956.364 408.691 887.153 423.817 819.208C442.373 735.832 465.601 649.932 509.442 575.428C555.361 497.414 624.186 455.854 707.446 427.754C814.094 391.762 927.831 376.782 1038.96 355.941C1149.7 335.176 1257.04 303.072 1364.45 270.066C1429.03 250.219 1494.73 229.526 1554.87 200.581C1572.4 192.145 1589.82 182.364 1603.57 167.952C1613.52 157.571 1623.39 144.658 1626.83 130.502C1628.98 121.47 1626.18 108.133 1618.24 102.32C1603.32 91.3772 1580.16 101.008 1564.98 106.711C1541.4 115.584 1518.54 126.707 1495.69 137.321" fill="#0ABBAB"/>
<path d="M1575.65 207.095C1512.63 237.888 1446.24 260.594 1379.55 281.544C1333.41 295.991 1286.88 309.73 1240.56 323.647C1165.54 346.177 1088.73 361.266 1011.89 376.14C927.99 392.395 843.658 409.579 762.465 434.997C714.703 449.954 667.01 468.197 623.859 494.425C579.803 521.217 547.949 561.547 523.213 606.173C472.85 697.065 448.182 801.494 427.49 902.474C416.409 956.577 407.129 1011.02 398.055 1065.49C389.589 1116.29 384.738 1168.87 361.412 1215.56C324.508 1289.61 253.361 1331.94 183.83 1371.05C160.24 1384.31 139.948 1401.77 121.878 1421.37C82.2382 1464.38 50.7069 1509.96 30.2603 1565.52C27.5512 1572.46 25.3021 1579.58 23.5273 1586.82C20.7327 1599.45 18.8159 1612.76 21.3491 1625.83C21.4918 1626.6 21.6739 1627.34 21.856 1628.06C24.3209 1637.57 29.3431 1641.83 36.5813 1644.07C41.2371 1645.52 47.5468 1643.83 54.0664 1641.41C173.619 1596.98 308.872 1553.42 386.945 1448.38C427.245 1394.16 433.157 1328.76 443.02 1262.94C455.236 1181.2 467.521 1099.27 482.898 1018.26C502.565 914.59 525.152 807.552 570.44 711.288C592.077 665.332 621.724 621.91 663.301 591.732C698.905 565.903 739.824 546.387 780.158 529.878C884.022 487.382 994.454 461.923 1103.67 434.79C1208.24 408.827 1310.35 376.252 1412.57 342.757C1469.87 323.98 1528.3 304.925 1581.47 278.214C1597.9 269.963 1613.77 260.081 1627.85 247.739C1645.06 232.64 1664.68 215.505 1673.91 195.292C1677.63 187.127 1683.23 174.237 1678.33 165.906C1667.08 146.725 1591.02 199.014 1575.55 207.114" fill="#B2CD0D"/>
<path d="M1610.75 281.844C1554.07 314.183 1493.29 337.367 1431.85 358.438C1386.87 373.882 1341.25 388.469 1296.01 403.028C1220.23 427.423 1141.92 444.878 1064.77 464.605C977.695 486.866 891.019 513.211 808.181 547.533C761.867 566.737 715.235 588.518 674.013 617.864C626.598 651.629 594.475 700.253 571.518 752.99C522.971 864.551 500.443 987.814 479.878 1107.04C469.084 1169.64 459.701 1232.49 450.386 1295.31C443.192 1343.81 440.34 1395.95 421.061 1441.53C383.07 1531.32 294.731 1586.69 214.234 1633.74C188.841 1648.57 164.265 1664.78 140.32 1681.94C95.0306 1714.39 37.1887 1748.69 11.6795 1800.12C9.23 1805.01 6.7884 1810.25 5.71117 1815.24C3.34754 1825.82 7.10706 1833.89 13.2523 1837.96C13.7484 1838.32 14.2637 1838.65 14.7961 1838.95C22.5694 1842.97 34.9529 1841.5 42.9732 1839.94C50.0972 1838.38 57.0197 1836.02 63.6055 1832.88C195.347 1772.05 338.993 1695.6 422.25 1575.91C459.5 1522.35 466.406 1462.36 475.171 1397.73C486.269 1315.9 495.438 1233.65 507.406 1152.12C522.77 1047.47 540.078 938.918 582.449 840.988C623.738 745.582 698.504 688.682 792.321 651.566C893.115 611.695 1000.9 591.285 1106.15 564.358C1207.1 538.466 1303.32 500.972 1400.32 463.679C1454.17 442.967 1509 421.536 1558.25 393.049C1574.38 383.604 1589.44 372.439 1603.17 359.751C1629.04 336.097 1654.31 310.164 1672.87 280.337C1680.71 267.727 1689.48 253.728 1693.4 239.388C1697.96 222.737 1669.76 242.748 1666.07 245.19C1647.62 257.398 1629.71 270.364 1610.75 281.804" fill="#EAE9F9"/>
<path d="M1598.6 391.866C1545.26 431.393 1487.32 462.864 1426.84 489.154C1383.44 508.011 1337.84 523.727 1293.98 540.492C1220.3 568.679 1140.24 582.329 1062.39 598.522C974.649 616.767 885.637 636.544 802.225 668.118C755.887 685.673 710.691 705.843 672.881 739.29C631.721 775.709 603.564 821.828 584.123 872.879C544.186 977.956 530.8 1092.76 518.023 1203.74C511.296 1261.92 505.519 1320.2 498.694 1378.36C492.94 1427.35 490.592 1480.85 473.352 1527.45C439.291 1619.67 356.874 1692.26 283.988 1753.99C259.365 1774.83 235.159 1796.25 211.091 1817.62C153.951 1868.4 76.9705 1915.51 51.878 1992.07C49.305 1999.9 47.0426 2008.3 46.9052 2016.67C46.6896 2031.06 52.6784 2048.71 65.8383 2056.64C66.7097 2057.19 67.6138 2057.68 68.5454 2058.11C82.6847 2064.45 98.0597 2058.43 111.703 2053.54C120.013 2050.55 128.571 2045.21 135.697 2040.04C213.799 1983.48 285.322 1913.23 349.644 1840.37C417.527 1763.57 481.601 1680.71 529.969 1591.15C546.442 1560.61 562.033 1528.3 570.928 1494.31C579.203 1462.66 580.708 1428.48 583.037 1395.95C588.355 1321.54 589.009 1246.71 592.131 1172.33C595.999 1078.61 600.569 980.213 632.918 891.055C649.137 846.349 675.207 805.179 711.183 773.752C744.46 744.691 788.46 731.466 830.988 723.753C930.244 705.719 1033.06 714.168 1133.86 709.164C1184.13 706.671 1234.67 701.404 1283.39 688.304C1328.19 676.26 1370.1 655.67 1411.19 634.958C1463.18 608.777 1514.9 579.447 1559.85 543.55C1574.83 531.472 1588.45 517.808 1600.48 502.794C1627.96 468.78 1654.47 431.906 1670.05 390.707C1675.68 375.816 1680.3 359.282 1682.12 344.017C1684.78 321.864 1659.08 341.731 1652.9 346.618C1634.41 361.221 1617.19 377.351 1598.63 391.866" fill="#FE9572"/>
<path d="M1627.25 521.785C1578.16 574.288 1524 621.025 1462.99 657.869C1422.94 682.062 1378.88 705.449 1334.19 717.652C1258.59 738.293 1175.31 732.453 1096.07 730.048C1008.69 727.391 919.873 723.756 834.783 737.704C788.858 745.233 746.429 762.137 713.612 797.236C682.776 830.189 661.978 870.171 649.435 913.307C623.05 1004.1 624.726 1102.02 625.251 1195.68C625.537 1246 626.373 1296.33 625.209 1346.64C624.162 1391.92 624.116 1440.2 612.969 1484.35C581.895 1607.28 501.685 1721.29 430.391 1823.61C405.243 1859.69 380.24 1896.18 354.711 1931.93C313.583 1989.56 267.973 2044.22 226.092 2101.52C189.881 2151.04 157.302 2204.84 144.534 2265.31C141.775 2278.36 139.383 2292.48 140.713 2305.32C142.572 2323.32 149 2350.04 171.693 2353.15C172.991 2353.34 174.303 2353.41 175.613 2353.36C198.035 2352.5 218.425 2331.12 233.325 2316.84C242.646 2307.77 251.466 2298.19 259.745 2288.16C346.049 2185.3 419.092 2068.13 487.076 1951.26C556.456 1831.79 622.027 1708.22 672.713 1580.42C700.94 1509.25 720.288 1441 719.996 1363.73C719.722 1298.77 712.087 1233.97 706.381 1169.49C699.301 1089.56 691.535 1004.32 715.183 926.149C727.747 884.621 751.732 846.001 784.182 817.058C816.888 787.822 861.738 779.669 903.276 780.255C1001.99 781.641 1101.07 816.999 1199.67 835.487C1246.41 844.25 1294.3 850.844 1341.95 847.59C1388.23 844.427 1427.97 827.989 1468.62 807.495C1523.94 779.632 1577.9 746.593 1624.47 706.657C1640.15 693.176 1654.29 678.017 1666.67 661.451C1699.57 617.507 1728.8 566.904 1733.76 510.457C1735.33 492.628 1734.66 471.727 1726.85 455.395C1704.75 409.162 1641.97 505.344 1627.25 521.785Z" fill="#F75F68"/>
<path d="M1724.09 654.02C1670.97 714.936 1613.09 771.707 1545.31 814.485C1504.41 840.287 1457.55 866.39 1410.2 873.393C1328.97 885.414 1241.17 858.626 1160.52 837.979C1073.54 815.707 978.481 782.601 890.592 791.348C847.109 795.656 811.889 812.486 783.347 848.137C758.309 879.566 741.644 916.833 734.909 956.455C721.658 1032.89 736.3 1112.58 748.317 1188.23C760.872 1267.59 776.214 1349.8 766.764 1430.36C760.072 1487.48 737.2 1543.5 716.198 1596.57C684.535 1676.54 648.041 1754.67 609.984 1831.63C585.7 1880.77 561.013 1930.02 535.468 1978.53C484.685 2074.96 428.974 2169.04 375.971 2264.46C336.823 2334.93 294.23 2409.71 277.081 2488.89C274.706 2499.88 272.952 2512.06 275.115 2523.07C279.701 2546.36 309.809 2537.21 322.317 2530.53C324.114 2529.53 325.851 2528.42 327.521 2527.22C356.545 2507.05 378.787 2475.94 398.329 2447.27C407.462 2433.9 416.325 2419.85 424.922 2405.96C506.618 2274 579.051 2134.99 646.96 1994.87C709.722 1865.39 770.645 1733.34 817.639 1597.61C840.916 1530.36 858.936 1467.22 853.946 1395.49C849.862 1336.84 837.039 1279.06 825.98 1221.56C812.138 1149.6 797.227 1072.49 814.057 999.594C823.1 960.313 844.046 922.511 872.957 894.336C905.073 863.031 948.528 854.957 990.455 857.046C1089.06 861.972 1187.74 906.614 1284.27 937.365C1332.05 952.6 1381.11 967.028 1431.27 971.536C1475.09 975.509 1512.71 967.991 1551.64 949.18C1605.53 923.154 1655.25 889.26 1699.18 848.607C1714.43 834.321 1728.74 819.068 1742.03 802.943C1784.8 751.443 1822.53 690.509 1839.19 624.68C1843.38 608.078 1847.16 585.785 1839.45 569.754C1815.51 520.009 1737.94 637.658 1724.09 654.029" fill="#7158D1"/>
<path d="M1938.8 1440.68C1898.93 1499.12 1842.89 1516.09 1776.28 1526.94C1694.92 1540.22 1615.15 1560.21 1541.14 1595.66C1492.44 1618.94 1431.37 1649.76 1399.26 1695.72C1362.16 1748.83 1379.81 1828.04 1395.71 1884.42C1419.35 1968.28 1456.83 2055.31 1502.37 2131.08C1520.24 2160.83 1529.84 2177.7 1508.62 2206.57C1505.65 2210.67 1501.41 2215.87 1504.33 2221.54C1506.58 2225.9 1512.56 2229.43 1518.16 2232.87C1530.52 2240.35 1542.29 2248.78 1553.34 2258.09C1563.29 2266.56 1575.86 2277.22 1589.77 2277.3C1598.91 2277.35 1605.36 2272.92 1610.18 2269.17C1618.59 2262.64 1643.58 2248.34 1638.03 2234.54C1633.34 2222.88 1623.33 2212.12 1616.09 2201.05C1597.01 2171.96 1580.33 2140.89 1565.05 2110.05C1513.68 2006.43 1451.88 1856.71 1535.97 1752.57C1594.85 1679.68 1672.38 1631.36 1763.44 1614.74C1824.43 1603.61 1885.22 1596.7 1939.38 1564.54C1959.65 1552.5 1976.19 1536.29 1987.48 1516.27C1998.98 1495.85 2003.98 1465.17 1992.4 1443.11C1982.3 1423.94 1951.46 1423.87 1938.8 1440.68Z" fill="#0ABBAB"/>
<path d="M1919.77 1328.87C1919.58 1314.16 1904.58 1304.37 1891.61 1309.3C1889.25 1310.26 1887.12 1311.71 1885.37 1313.57C1855.71 1345.87 1817.71 1372.63 1776.34 1386.41C1758.11 1392.47 1739.27 1397.35 1720.48 1401.91C1684.98 1410.54 1649.28 1419.45 1613.65 1427.45C1574.07 1436.34 1534.01 1444.66 1494.64 1454.24C1477.4 1458.46 1460.02 1462.96 1442.93 1467.68C1389.92 1482.46 1337.28 1500.7 1288.39 1525.36C1252.33 1543.55 1221.21 1565.25 1212.47 1607.61C1203.65 1650.36 1213.33 1697.62 1223.4 1738.64C1251.29 1852.16 1303.32 1963.46 1348.7 2072.32C1356.76 2091.67 1368.55 2114.05 1366.47 2134.01C1364.73 2150.67 1356.04 2166.31 1347.94 2182.23C1346.24 2185.58 1344.5 2189.26 1344.08 2192.82C1343.67 2195.43 1344.48 2198.08 1346.27 2200.01C1349.4 2203.36 1356.13 2205.13 1362.82 2206.52C1373.58 2208.77 1384.44 2210.9 1395.26 2212.98C1399.05 2213.71 1402.79 2214.43 1406.45 2215.19C1420.27 2218.03 1435.72 2220.31 1449.56 2216.08C1457.69 2213.51 1465.09 2209.07 1471.2 2203.12C1483.93 2191.37 1505.93 2173.73 1501.7 2153.28C1498.52 2137.92 1490.28 2123.26 1483.55 2108.98C1468.46 2076.9 1454.19 2044.31 1439.68 2012.03C1422.39 1973.59 1405.59 1934.5 1391.42 1895.07C1369.85 1834.93 1345.34 1762.31 1357.25 1697.1C1367.71 1640.08 1419.2 1603.12 1464.5 1574.75C1524.22 1537.34 1591.76 1515.77 1661.08 1500.7C1693.17 1493.71 1726.2 1488.71 1758.03 1481.56C1785.66 1475.35 1813.18 1467.04 1837.95 1454.35C1857.05 1444.64 1873.94 1431.09 1887.57 1414.54C1906.26 1391.93 1920.16 1358.54 1919.77 1328.87Z" fill="#FFD300"/>
<path d="M1873.19 1206.97C1874.23 1196.88 1873.44 1178.77 1858.46 1178.78C1856.67 1178.87 1854.94 1179.45 1853.46 1180.46C1814.54 1203.47 1782.17 1235.43 1740.36 1253.37C1721.1 1261.64 1701.07 1268.86 1681.16 1275.55C1643.49 1288.1 1604.77 1300.06 1566.77 1310.68C1524.19 1322.57 1479.78 1330.99 1436.02 1339.86C1416.08 1343.91 1396.08 1347.94 1376.17 1352.12C1315.43 1364.93 1254.5 1379.37 1196.25 1399.9C1155.75 1414.17 1106.03 1429.1 1079.33 1465.79C1051.68 1503.75 1057.49 1555.1 1064 1598.22C1086.25 1745.34 1154.73 1883.3 1188.16 2028.8C1194.78 2057.64 1204.39 2090.29 1196.96 2119.01C1190.85 2142.61 1177.33 2165.1 1167.71 2187.74C1165.86 2192.09 1164.26 2196.84 1164 2201.23C1163.81 2204.32 1164.54 2207.18 1167.06 2209.26C1170.47 2212.08 1177.39 2212.97 1184.48 2213.02C1196.31 2213.09 1208.23 2212.5 1220.07 2211.46C1224.21 2211.1 1228.33 2210.62 1232.32 2210.18C1247.32 2208.55 1263.19 2205.85 1276.71 2199.12C1285.09 2194.76 1292.67 2188.99 1299.1 2182.06C1316.65 2163.02 1335.93 2142.4 1334.75 2114.53C1333.88 2094.89 1326.93 2075.81 1321.11 2057.28C1309.64 2020.73 1297.19 1984.74 1283.31 1949.09C1266.89 1906.86 1249.56 1864.48 1234.25 1821.93C1209.95 1754.38 1182.48 1677.35 1185.56 1604.07C1188.66 1530.2 1248.86 1500.61 1307.76 1472.89C1389.02 1434.67 1477.23 1412.36 1565.5 1393.33C1602.59 1385.33 1639.71 1376.77 1676.38 1367.58C1705.44 1360.3 1734.76 1352.13 1761.58 1340.11C1781.27 1331.31 1799.38 1319.34 1815.22 1304.69C1842.06 1279.86 1869.69 1242.24 1873.19 1206.97Z" fill="#FE9572"/>
<path d="M1848.24 1078.4C1853.55 1065.55 1860.68 1047.51 1855.69 1033.92C1855.38 1032.89 1854.54 1032.12 1853.51 1031.87C1837.94 1029.82 1818.08 1052.28 1807 1061.34C1785.95 1078.61 1764.98 1096.54 1742.08 1111C1722.07 1123.64 1701.19 1135.57 1680.17 1146.35C1639.29 1167.19 1596.85 1184.83 1553.24 1199.09C1508.83 1213.67 1465.92 1224.73 1419.25 1229.83C1398.75 1232.07 1377.9 1233.68 1357.22 1235.12C1295.13 1239.47 1231.98 1242 1171.25 1253.41C1125.65 1261.98 1075.22 1274.25 1034.85 1299.09C991.9 1325.51 969.127 1369.35 963.67 1416.75C943.804 1588.55 1043.32 1764.27 1060.21 1936.5C1065.87 1994.24 1052.06 2050.61 1028.85 2103.2C1006.29 2154.34 972.048 2203.15 952.516 2255.93C950.228 2262.13 948.935 2267.54 949.757 2271.16C950.34 2273.69 952.291 2275.15 956.877 2274.64C962.258 2274.05 971.21 2270.62 980.547 2266.59C995.746 2260.04 1010.93 2253.03 1025.86 2245.9C1030.95 2243.46 1035.86 2241.06 1040.59 2238.71C1056.92 2230.7 1074.08 2222.59 1088.31 2211.84C1097.33 2205.17 1105.64 2197.59 1113.09 2189.2C1136.33 2162.51 1159.34 2133.55 1162.97 2096.99C1169.07 2035.69 1148.73 1964.16 1132.5 1906.63C1119.7 1861.27 1104.72 1815.88 1091.15 1770.58C1068.64 1695.22 1045.15 1615.33 1044.41 1535.81C1044.07 1499.72 1052.2 1465.3 1078.51 1439.23C1103.84 1414.12 1139.8 1400.84 1171.92 1387.6C1267.89 1348.05 1369.58 1323.59 1470.62 1298.77C1513.7 1288.22 1556.13 1274.93 1598.75 1262.61C1630.92 1253.33 1663.42 1243.7 1693.85 1230.83C1715.28 1221.83 1735.53 1210.26 1754.17 1196.36C1794.51 1166.17 1829.2 1124.47 1848.24 1078.4Z" fill="#EAE9F9"/>
<path d="M1863.56 924.472C1872.91 907.047 1882.62 887.203 1885.13 866.935C1885.38 865.045 1885.46 863.133 1885.33 861.229C1884.65 842.11 1849.94 880.39 1846.65 883.863C1825.73 905.812 1805.94 929.151 1783.85 949.701C1764.48 967.706 1744.13 985.245 1723.29 1001.41C1683.6 1032.16 1640.39 1059.27 1594.8 1080.13C1549.21 1100.99 1505.98 1107.78 1456.19 1104.53C1434.73 1103.13 1412.81 1100.21 1391.4 1096.82C1326.11 1086.43 1260.44 1069.9 1194.97 1062.07C1147.77 1056.41 1100.16 1056.12 1052.8 1064.76C999.737 1074.42 958.522 1100 932.915 1145.42C882.552 1234.89 904.965 1351.92 926.509 1451.18C946.312 1542.5 983.486 1641.76 976.362 1736.23C967.671 1851.47 910.222 1967.25 859.703 2068.67C829.86 2128.59 797.62 2187.72 765.841 2246.86C740.825 2293.38 712.858 2340.42 694.22 2389.08C690.908 2397.72 686.875 2407.41 686.673 2416.85C686.582 2421.26 688.506 2424.09 693.765 2423.05C702.448 2421.34 711.044 2415.81 718.742 2411.43C736.497 2401.26 753.734 2389.23 770.277 2376.88C776.182 2372.46 781.861 2368.08 787.315 2363.73C806.087 2348.8 824.56 2332.97 840.701 2315.44C853.008 2302.01 864.539 2287.9 875.238 2273.16C925.052 2204.72 968.098 2130.49 998.065 2051.96C1014.34 2009.36 1027.75 1964.24 1031.54 1918.12C1034.93 1876.68 1028.32 1834.07 1020.27 1793.86C1011.15 1748.4 998.657 1702.95 987.199 1657.74C967.917 1581.73 949.029 1503.66 949.923 1424.6C950.349 1386.99 957.942 1348.81 979.921 1317.63C1003.63 1284.06 1037.31 1265.7 1074.15 1252.22C1179.17 1213.85 1292.25 1206.62 1404.67 1196.28C1459.15 1191.26 1510.03 1181.93 1561.58 1164.08C1597.72 1151.53 1633.86 1137.11 1667.53 1119.5C1690.8 1107.26 1713 1093.1 1733.92 1077.16C1787.48 1036.44 1832.2 982.953 1863.56 924.472Z" fill="#1DAACC"/>
<path d="M1464.87 992.809C1373.77 984.686 1284.07 944.451 1196.61 914.657C1110.87 885.452 998.382 849.082 919.67 898.891C851.954 941.746 834.357 1040.79 838.933 1119.71C843.661 1201.08 865.66 1280.37 881.777 1359.93C889.283 1396.98 895.943 1434.38 898.221 1472.17C900.785 1514.92 893.843 1553.95 881.677 1594.89C836.729 1745.91 765.219 1890.52 694.139 2030.26C639.349 2137.94 581.118 2244.27 524.187 2351.1C502.397 2391.95 480.607 2432.85 460.449 2474.56C448.402 2499.53 434.317 2526.1 429.42 2553.55C428.176 2560.49 428.889 2566.14 433.267 2566.66C455.068 2569.28 484.906 2541.99 501.568 2527.73C529.702 2503.65 553.264 2473.67 575.14 2443.55C707.426 2261.49 814.737 2052.13 894.325 1840.52C919.286 1774.14 949.538 1699.24 948.698 1627.09C947.995 1566.98 933.903 1507.47 920.832 1449.1C892.454 1322.39 840.149 1095.1 999.739 1044.14C1084.66 1017.03 1182.76 1030.22 1273.17 1044.02C1358.21 1056.98 1452.49 1082.72 1537.31 1066.64C1604.86 1053.83 1671.56 1009.38 1723.74 965.259C1784.1 914.209 1832.11 847.963 1865.98 776.594C1875.45 756.654 1885.34 733.821 1886.21 711.33C1887.67 673.077 1856.25 704.148 1845.18 716.987C1823.54 742.108 1805.98 770.725 1784.95 796.115C1732.97 858.905 1673.94 917.056 1603.48 957.463C1558.55 983.209 1516.77 997.436 1464.87 992.809Z" fill="#EAE9F9"/>
</g>
</svg>
