<svg id="visual" viewBox="0 0 900 450" width="900" height="450" xmlns="http://www.w3.org/2000/svg" xmlns:xlink="http://www.w3.org/1999/xlink" version="1.1"><path fill="#121212" fill-opacity="1" d="M0 183L21.5 198.8C43 214.7 86 246.3 128.8 249.3C171.7 252.3 214.3 226.7 257.2 223.3C300 220 343 239 385.8 236.5C428.7 234 471.3 210 514.2 200.7C557 191.3 600 196.7 642.8 211.5C685.7 226.3 728.3 250.7 771.2 257.7C814 264.7 857 254.3 878.5 249.2L900 244L900 0L878.5 0C857 0 814 0 771.2 0C728.3 0 685.7 0 642.8 0C600 0 557 0 514.2 0C471.3 0 428.7 0 385.8 0C343 0 300 0 257.2 0C214.3 0 171.7 0 128.8 0C86 0 43 0 21.5 0L0 0Z" stroke-linecap="round" stroke-linejoin="miter"></path></svg>