<svg id="visual" viewBox="0 0 960 540" width="960" height="540" xmlns="http://www.w3.org/2000/svg" xmlns:xlink="http://www.w3.org/1999/xlink" version="1.1"><g transform="translate(525.5066398545981 277.48612553657097)"><path d="M239.1 -401.2C299.6 -379.3 331.2 -294.4 348.2 -217C365.2 -139.7 367.6 -69.8 344.1 -13.6C320.6 42.7 271.1 85.3 234.1 127.9C197 170.5 172.2 213 135.3 235.7C98.3 258.3 49.2 261.2 -20.4 296.5C-90 331.9 -180 399.8 -242.1 391.6C-304.1 383.4 -338.3 299.2 -375.8 221.3C-413.3 143.3 -454.1 71.7 -452.3 1.1C-450.4 -69.5 -405.8 -139 -340.1 -168.2C-274.5 -197.5 -187.9 -186.4 -127.7 -208.5C-67.5 -230.6 -33.8 -285.8 27.8 -333.9C89.3 -382.1 178.7 -423.1 239.1 -401.2" fill="#BB004B"></path></g></svg>