<svg width="1384" height="786" viewBox="0 0 1384 786" fill="none" xmlns="http://www.w3.org/2000/svg">
<path fill-rule="evenodd" clip-rule="evenodd" d="M545.967 1.2466C541.387 6.7646 553.25 15.4996 605.914 45.3846C664.93 78.8746 676.016 86.4116 716.914 120.852C747.727 146.799 754.667 152.236 765.192 158.676C792.9 175.631 817.407 182.277 876.301 188.81C894.984 190.882 900.434 191.451 934.414 194.877C975.563 199.026 985.914 201.528 985.914 207.327C985.914 207.683 949.802 207.783 905.664 207.548C835.877 207.176 824.045 206.896 814.914 205.401C795.268 202.182 779.092 195.374 755.914 180.567C732.19 165.412 717.029 152.205 694.782 127.311C677.941 108.467 676.116 107.138 671.365 110.251C667.683 112.663 634.004 180.813 630.447 193.048C627.799 202.159 629.403 204.704 651.713 226.79C671.866 246.74 686.743 258.75 707.633 271.936C750.33 298.886 819.147 321.919 878.914 329.263C924.01 334.805 932.698 338.036 939.671 351.855C945.187 362.786 946.1 377.909 942.341 396.054C937.794 418.007 924.654 436.957 908.63 444.67C899.286 449.168 894.489 450.162 882.414 450.102C858.971 449.985 827.405 439.843 767.914 413.312C696.785 381.591 674.692 374.378 644.8 373.116C607.473 371.54 583.004 382.504 531.914 423.7C526.139 428.357 514.263 438.049 505.523 445.239C463.075 480.158 451.929 488.349 434.689 497.294C423.266 503.221 412.556 506.877 399.378 509.346C391.341 510.852 390.519 510.856 389.701 509.394C387.13 504.801 376.734 502.242 356.914 501.326C341.609 500.618 338.334 499.97 328.174 495.637C322.24 493.107 320.661 492.776 319.424 493.803C317.075 495.752 317.582 497.241 322.164 501.856C327.467 507.196 336.383 513.043 343.768 516.024C348.884 518.089 351.034 518.303 366.664 518.307C376.152 518.309 383.914 518.572 383.914 518.891C383.914 520.195 375.082 525.68 370.463 527.246C361.729 530.206 354.686 530.243 338.622 527.415C319.878 524.115 311.837 524.039 306.414 527.108C299.785 530.859 296.854 538.132 288.387 571.842C280.402 603.634 279.796 603.757 286.063 572.311C289.276 556.186 289.987 550.631 289.731 543.641C289.441 535.703 289.136 534.576 286.127 530.309C284.319 527.745 283.297 525.93 283.856 526.275C285.592 527.348 288.914 524.857 288.914 522.483C288.914 520.798 289.739 519.982 292.164 519.268C295.343 518.332 295.549 517.907 301.591 499.811C304.988 489.636 308.746 477.711 309.943 473.311C311.139 468.911 313.24 462.839 314.613 459.819C318.213 451.895 318.704 445.074 316.066 439.625C311.238 429.651 300.513 429.163 289.236 438.404C286.807 440.394 281.201 447.524 276.476 454.632C271.841 461.606 265.081 470.911 261.455 475.311C253.256 485.259 246.791 498.239 243.525 511.311C242.151 516.811 238.977 529.689 236.472 539.929C232.027 558.103 228.71 567.811 226.945 567.811C224.925 567.811 223.432 559.924 223.539 549.811C223.667 537.673 226.678 522.051 233.538 497.931C240.718 472.684 246.424 461.466 257.654 450.517C264.891 443.462 269.229 440.357 279.914 434.581C297.589 425.028 314.608 420.827 335.795 420.787C356.011 420.749 370.941 419.285 376.797 416.766C384.543 413.434 391.914 404.183 391.914 397.793C391.914 393.708 388.879 389.683 384.257 387.638C377.648 384.715 360.16 383.794 331.59 384.864C298.801 386.092 278.385 388.688 264.243 393.426C260.439 394.7 268.63 388.768 275.414 385.336C285.383 380.291 293.33 378.937 319.513 377.823C345.23 376.728 351.812 375.402 360.566 369.551C366.042 365.891 371.528 358.387 372.495 353.232C373.373 348.553 371.424 344.29 367.223 341.693C364.199 339.824 362.84 339.636 356.341 340.184C352.256 340.529 345.557 341.094 341.455 341.44C335.484 341.943 331.097 341.503 319.462 339.235C298.884 335.223 297.063 335.603 269.423 349.692L248.131 360.545L253.148 349.428C266.685 319.432 270.379 307.489 270.354 293.811C270.341 286.633 269.899 284.347 267.513 279.114C265.96 275.705 263.873 272.179 262.876 271.276C260.568 269.188 257.771 269.713 256.384 272.496C255.331 274.608 255.272 274.614 254.1 272.737C252.453 270.1 248.309 270.276 246.491 273.061C245.683 274.299 244.072 279.811 242.912 285.311C238.28 307.255 229.736 325.935 215.384 345.493C210.614 351.993 204.773 361.361 202.403 366.311C196.16 379.354 189.714 402.464 183.856 432.811C180.839 448.436 180.487 449.497 177.208 452.811C169.205 460.901 160.264 478.971 157.24 493.167C155.159 502.938 155.998 519.209 159.258 532.311C167.943 567.22 168.585 586.13 161.967 612.217C153.217 646.711 134.861 677.971 106.971 705.875C85.5482 727.31 60.8582 745.041 11.5212 774.424C0.94423 780.724 -1.34877 782.948 0.659229 784.956C2.28723 786.584 3.43323 786.009 26.2792 772.096C71.4862 744.567 93.8442 727.976 114.463 706.661C150.32 669.593 171.918 621.022 171.913 577.462C171.911 564.653 170.896 557.486 166.083 536.311C161.185 514.761 160.641 510.143 161.891 500.701C163.603 487.763 167.767 476.299 174.728 465.361C178.262 459.806 181.044 456.773 182.039 457.388C182.497 457.672 183.73 457.445 184.778 456.884C186.234 456.105 186.692 454.738 186.719 451.088C186.763 445.34 192.609 416.37 197.403 398.148C203.284 375.793 208.267 364.559 218.106 351.476C229.615 336.171 240.109 316.727 244.49 302.584C245.889 298.071 246.543 297.088 247.577 297.946C248.298 298.545 249.551 298.781 250.36 298.47C252.323 297.717 258.774 287.903 260.384 283.222C261.667 279.489 261.67 279.487 262.94 281.86C264.784 285.305 265.363 296.853 264.031 303.624C261.854 314.689 257.724 325.984 248.475 346.166C240.123 364.394 236.242 377.32 232.97 397.811C230.369 414.102 228.571 436.037 229.389 441.494C229.978 445.423 230.293 445.811 232.888 445.811C235.509 445.811 235.96 445.227 238.473 438.561C246.64 416.902 251.916 405.663 255.128 403.083C257.103 401.495 270.981 397.085 279.61 395.302C295.237 392.074 314.907 390.617 344.914 390.463C367.66 390.346 375.523 390.633 379.256 391.717C384.71 393.3 386.594 395.964 385.459 400.487C384.5 404.308 377.283 411.032 372.396 412.658C369.878 413.495 359.409 414.288 343.914 414.813C330.439 415.271 316.489 416.157 312.914 416.784C299.244 419.18 278.044 427.867 266.179 435.934C244.497 450.677 235.562 466.351 224.95 508.265C219.572 529.507 217.921 539.447 217.917 550.618C217.912 566.047 221.422 574.351 227.644 573.626C233.253 572.973 237.18 563.138 244.342 531.811C251.831 499.05 254.003 493.785 266.412 478.311C270.381 473.361 275.83 465.973 278.521 461.893L283.414 454.476L283.958 459.393C285.096 469.667 290.308 474.517 299.093 473.476C301.744 473.162 303.914 473.241 303.914 473.652C303.914 475.187 291.761 512.343 291.01 513.104C290.579 513.541 287.436 511.741 284.024 509.104C271.338 499.302 265.631 495.811 262.293 495.811C259.833 495.811 258.881 496.34 258.353 498.002C257.634 500.269 258.566 501.363 266.948 508.093C270.341 510.817 270.351 510.846 267.414 509.464C260.226 506.081 255.96 506.551 255.643 510.761C255.443 513.408 257.48 515.262 270.914 524.663C281.69 532.204 284.922 536.85 284.903 544.773C284.897 547.269 283.082 558.311 280.87 569.311C275.839 594.322 274.967 600.231 274.007 615.811C273.112 630.341 271.228 635.877 257.848 663.311C246.609 686.354 236.263 703.891 222.45 723.311C209.499 741.518 208.695 742.798 209.27 744.297C210.564 747.667 214.602 745.85 234.388 732.993C250.95 722.231 265.516 707.456 271.381 695.469C276.977 684.031 278.077 677.358 278.58 651.811C278.997 630.587 279.272 627.585 281.421 620.811C284.794 610.179 290.101 589.973 294.423 571.311C301.85 539.236 305.733 531.292 314.543 530.152C316.672 529.877 325.225 530.812 333.55 532.231C350.285 535.083 361.825 535.477 369.414 533.455C378.925 530.92 385.923 526.33 389.466 520.301C391.82 516.296 391.837 516.288 402.118 514.428C434.556 508.558 451.499 497.821 525.414 436.296C539.772 424.345 565.611 404.887 575.62 398.487C607.71 377.971 637.213 373.511 675.669 383.361C695.987 388.565 712.292 394.951 767.414 419.294C831.927 447.785 862.711 457.041 887.815 455.494C904.546 454.462 915.452 449.568 926.959 437.925C933.087 431.725 935.48 428.32 939.7 419.801C946.708 405.655 948.961 396.558 949.606 379.811C950.59 354.269 944.534 340.977 928.451 333.374C920.596 329.66 913.246 328.123 887.414 324.79C843.859 319.171 810.68 311.126 772.914 297.026C733.888 282.455 703.633 265.211 675.414 241.455C665.748 233.318 641.001 208.697 637.661 203.894C634.738 199.692 634.645 199.264 635.764 195.082C637.677 187.928 669.51 121.086 673.277 116.311C674.812 114.366 675.03 114.491 681.15 120.811C684.612 124.386 689.557 129.837 692.14 132.924C699.97 142.285 714.868 156.982 724.914 165.257C745.427 182.152 776.991 200.905 793.912 206.251C813.547 212.453 836.281 213.759 925.164 213.79C958.026 213.802 984.914 214.093 984.914 214.437C984.914 215.251 972.136 263.304 970.785 267.57C970.217 269.363 969.452 270.643 969.083 270.416C967.387 269.368 934.803 267.721 897.914 266.818C859.932 265.889 843.374 264.959 799.604 261.3C776.054 259.331 761.718 259.344 757.864 261.337C753.947 263.363 753.863 267.439 757.664 271.047C767.463 280.348 813.986 298.673 850.955 307.795C880.219 315.015 936.168 323.334 950.694 322.625C957.353 322.299 958.183 322.015 960.427 319.29C963.127 316.011 966.027 307.672 970.938 289.061C972.716 282.323 974.675 276.812 975.292 276.812C975.909 276.813 981.126 277.955 986.886 279.351C1011.85 285.398 1031.86 296.435 1054.8 316.811C1080.78 339.877 1091.65 347.789 1108.32 355.762C1131.4 366.795 1155.04 370.561 1194.41 369.476C1233.14 368.409 1265.56 363.65 1305.26 353.208C1312.49 351.304 1322.24 349.481 1326.91 349.157C1334.5 348.631 1336.08 348.839 1341.63 351.105C1349.69 354.397 1360.22 361.768 1371.25 371.85C1379.81 379.674 1383.03 381.185 1383.7 377.703C1384.21 375.031 1366.35 358.939 1354.23 351.161C1338.96 341.358 1330.81 341.082 1297.91 349.252C1273.74 355.257 1255.72 358.645 1232.83 361.493C1211.86 364.101 1158.7 364.094 1144.41 361.482C1121.01 357.2 1100.38 347.502 1080.41 331.384C1075.18 327.161 1072.03 324.42 1062.91 316.145C1043.38 298.419 1026.01 287.086 1006.63 279.408C999.531 276.595 981.474 271.811 977.959 271.811C976.834 271.811 975.914 271.514 975.914 271.151C975.914 270.484 986.855 228.793 989.584 219.061L991.056 213.811L1004.24 213.818C1011.48 213.821 1028.44 214.284 1041.91 214.845C1065.07 215.809 1078.76 216.643 1133.41 220.412C1158.85 222.167 1174.8 221.93 1179.41 219.729C1181.7 218.637 1182.49 217.52 1182.73 215.02C1183.36 208.526 1175.25 203.051 1126.83 177.28C1048.61 135.647 1011.98 114.093 960.414 79.3506C930.566 59.2406 917.949 50.3796 883.414 25.2686C862.484 10.0496 860.564 9.4186 843.914 12.2756C817.719 16.7726 808.192 17.3116 755.414 17.2856C705.894 17.2606 691.533 16.7076 650.914 13.2626C627.309 11.2606 612.927 9.4206 583.914 4.6896C551.726 -0.558399 547.764 -0.9184 545.967 1.2466ZM573.761 8.7836C624.359 17.3036 657.599 20.5386 718.914 22.9086C766.61 24.7526 808.419 23.3026 838.31 18.7676C856.705 15.9766 859.257 16.1186 866.226 20.3206C869.423 22.2476 876.173 26.8896 881.226 30.6356C894.011 40.1136 900.371 44.7176 907.914 49.9546C911.489 52.4376 920.684 58.8836 928.347 64.2806C941.889 73.8186 973.252 94.9046 987.414 103.994C1024.44 127.756 1058.36 147.205 1117.91 178.83C1154.45 198.232 1174.7 210.029 1176.52 212.987C1176.88 213.563 1176.55 214.427 1175.79 214.907C1173.28 216.499 1145.86 215.812 1111.91 213.307C1093.49 211.947 1065.14 210.359 1048.91 209.778C986.298 207.536 990.914 207.882 990.914 205.43C990.914 202.299 988.513 199.323 984.423 197.382C977.202 193.956 964.451 192.168 905.414 186.303C833.393 179.148 808.26 174.148 782.703 161.893C768.345 155.007 754.197 144.842 727.411 122.166C689.773 90.3006 679.755 82.7956 651.914 65.6106C641.958 59.4646 632.422 53.9236 598.914 34.8166C570.366 18.5376 551.192 5.9586 554.761 5.8516C555.501 5.8286 564.051 7.1486 573.761 8.7836ZM810.414 267.824C850.006 270.979 865.518 271.776 907.414 272.811C941.308 273.648 967.636 275.046 968.436 276.052C968.963 276.715 959.605 308.807 957.788 312.565C956.461 315.311 954.873 317.034 953.309 317.427C949.295 318.434 905.686 312.993 879.414 308.207C843.297 301.626 802.112 288.458 774.752 274.742C770.166 272.443 765.084 269.621 763.457 268.471L760.501 266.381L762.957 265.643C765.992 264.732 779.261 265.342 810.414 267.824ZM249.443 288.755C247.402 292.701 246.866 292.634 247.903 288.561C248.359 286.773 249.098 283.511 249.546 281.311L250.36 277.311L250.692 281.505C250.888 283.987 250.379 286.946 249.443 288.755ZM321.72 345.311C335.79 348.226 338.281 348.311 350.68 346.3C358.813 344.981 360.372 344.975 363.43 346.253C366.255 347.434 366.914 348.249 366.914 350.564C366.914 354.545 362.065 361.758 357.065 365.214C350.588 369.691 344.305 370.866 321.414 371.882C298.037 372.919 285.584 374.71 276.733 378.306C269.358 381.303 259.317 388.387 254.253 394.166C250.709 398.209 244.47 401.62 243.578 400.001C242.78 398.552 247.757 372.799 249.541 369.146C251.197 365.755 253.036 364.468 265.414 358.032C281.758 349.533 292.76 344.229 295.481 343.536C300.281 342.312 310.624 343.012 321.72 345.311ZM244.901 406.319C246.422 405.379 246.134 406.64 243.906 410.675C242.801 412.675 240.315 418.136 238.381 422.811L234.865 431.311L235.364 426.311C235.639 423.561 236.155 417.711 236.511 413.311C236.866 408.911 237.332 405.01 237.545 404.642C237.758 404.274 239.272 404.642 240.91 405.459C242.548 406.276 244.344 406.663 244.901 406.319ZM307.593 438.096C309.496 439.157 308.999 439.316 303.682 439.349C297.947 439.384 297.761 439.314 300.502 438.144C304.138 436.592 304.885 436.587 307.593 438.096ZM307.714 446.011C309.131 447.428 309.232 452.716 307.949 458.311C306.128 466.251 296.627 470.639 292.003 465.676C284.709 457.847 291.723 445.118 303.464 444.874C305.142 444.84 307.054 445.351 307.714 446.011ZM356.914 506.805C373.471 507.842 386.293 510.395 382.297 511.858C378.448 513.268 361.293 513.928 355.001 512.909C351.474 512.337 345.399 510.278 341.501 508.333C336.766 505.969 335.41 504.957 337.414 505.284C339.064 505.552 347.839 506.237 356.914 506.805ZM273.592 657.561C272.411 683.23 267.332 696.268 252.857 710.788C245.204 718.464 226.156 732.811 223.616 732.811C223.307 732.811 225.896 728.648 229.368 723.561C244.326 701.646 259.913 673.948 269.323 652.561C271.44 647.749 273.409 643.811 273.699 643.811C273.988 643.811 273.94 649.999 273.592 657.561Z" fill="white"/>
</svg>
